<mxfile host="65bd71144e">
    <diagram id="2KhIsbDiPvBkP_OM17Oy" name="Page-1">
        <mxGraphModel dx="2700" dy="2297" grid="0" gridSize="4" guides="1" tooltips="1" connect="1" arrows="1" fold="1" page="1" pageScale="1" pageWidth="850" pageHeight="1100" background="#FFFFFF" math="0" shadow="0">
            <root>
                <mxCell id="0"/>
                <mxCell id="1" parent="0"/>
                <mxCell id="227" value="" style="whiteSpace=wrap;html=1;strokeColor=none;fontColor=#000000;fillColor=none;" vertex="1" parent="1">
                    <mxGeometry x="388" y="-50" width="852" height="743" as="geometry"/>
                </mxCell>
                <mxCell id="113" value="&lt;b&gt;Medical Record Management&lt;br&gt;&lt;br&gt;&lt;br&gt;&lt;br&gt;&lt;br&gt;&lt;br&gt;&lt;br&gt;&lt;br&gt;&lt;br&gt;&lt;br&gt;&lt;br&gt;&lt;br&gt;&lt;br&gt;&lt;br&gt;&lt;br&gt;&lt;br&gt;&lt;br&gt;&lt;br&gt;&lt;br&gt;&lt;br&gt;&lt;br&gt;&lt;br&gt;&lt;br&gt;&lt;br&gt;&lt;br&gt;&lt;br&gt;&lt;br&gt;&lt;br&gt;&lt;br&gt;&lt;br&gt;&lt;br&gt;&lt;br&gt;&lt;br&gt;&lt;br&gt;&lt;br&gt;&lt;br&gt;&lt;br&gt;&lt;br&gt;&lt;br&gt;&lt;br&gt;&lt;br&gt;&lt;/b&gt;" style="html=1;dropTarget=0;fillColor=#FBF6E4;strokeColor=#000000;fontColor=#000000;" vertex="1" parent="1">
                    <mxGeometry x="430" y="14" width="769" height="636" as="geometry"/>
                </mxCell>
                <mxCell id="114" value="" style="shape=module;jettyWidth=8;jettyHeight=4;fillColor=#FBF6E4;strokeColor=#000000;" vertex="1" parent="113">
                    <mxGeometry x="1" width="20" height="20" relative="1" as="geometry">
                        <mxPoint x="-27" y="7" as="offset"/>
                    </mxGeometry>
                </mxCell>
                <mxCell id="213" style="edgeStyle=none;html=1;exitX=1;exitY=0.5;exitDx=0;exitDy=0;entryX=1;entryY=0.5;entryDx=0;entryDy=0;entryPerimeter=0;strokeColor=#000000;endArrow=none;endFill=0;" edge="1" parent="1" source="117" target="208">
                    <mxGeometry relative="1" as="geometry">
                        <Array as="points">
                            <mxPoint x="1113" y="586"/>
                        </Array>
                    </mxGeometry>
                </mxCell>
                <mxCell id="215" style="edgeStyle=none;html=1;exitX=0;exitY=0.5;exitDx=0;exitDy=0;entryX=0;entryY=0.5;entryDx=0;entryDy=0;entryPerimeter=0;strokeColor=#000000;endArrow=none;endFill=0;" edge="1" parent="1" source="117" target="214">
                    <mxGeometry relative="1" as="geometry">
                        <Array as="points">
                            <mxPoint x="719" y="588"/>
                        </Array>
                    </mxGeometry>
                </mxCell>
                <mxCell id="117" value="IRepository" style="html=1;dropTarget=0;fillColor=#f2dbc0;strokeColor=#000000;fontColor=#000000;align=center;" vertex="1" parent="1">
                    <mxGeometry x="817" y="563" width="130" height="50" as="geometry"/>
                </mxCell>
                <mxCell id="118" value="" style="shape=module;jettyWidth=8;jettyHeight=4;fillColor=#f2dbc0;strokeColor=#000000;" vertex="1" parent="117">
                    <mxGeometry x="1" width="20" height="20" relative="1" as="geometry">
                        <mxPoint x="-27" y="7" as="offset"/>
                    </mxGeometry>
                </mxCell>
                <mxCell id="209" style="edgeStyle=none;html=1;exitX=1;exitY=0.5;exitDx=0;exitDy=0;entryX=1;entryY=0.5;entryDx=0;entryDy=0;entryPerimeter=0;strokeColor=#000000;endArrow=none;endFill=0;" edge="1" parent="1" source="120" target="206">
                    <mxGeometry relative="1" as="geometry">
                        <Array as="points">
                            <mxPoint x="1079" y="493"/>
                        </Array>
                    </mxGeometry>
                </mxCell>
                <mxCell id="217" style="edgeStyle=none;html=1;exitX=0;exitY=0.5;exitDx=0;exitDy=0;entryX=1;entryY=0.5;entryDx=0;entryDy=0;entryPerimeter=0;strokeColor=#000000;endArrow=none;endFill=0;" edge="1" parent="1" source="120" target="142">
                    <mxGeometry relative="1" as="geometry"/>
                </mxCell>
                <mxCell id="120" value="Repository" style="html=1;dropTarget=0;fillColor=#f2dbc0;strokeColor=#000000;fontColor=#000000;" vertex="1" parent="1">
                    <mxGeometry x="822" y="468" width="120" height="50" as="geometry"/>
                </mxCell>
                <mxCell id="121" value="" style="shape=module;jettyWidth=8;jettyHeight=4;fillColor=#f2dbc0;strokeColor=#000000;" vertex="1" parent="120">
                    <mxGeometry x="1" width="20" height="20" relative="1" as="geometry">
                        <mxPoint x="-27" y="7" as="offset"/>
                    </mxGeometry>
                </mxCell>
                <mxCell id="198" style="edgeStyle=none;html=1;exitX=0;exitY=0.5;exitDx=0;exitDy=0;entryX=1;entryY=0.5;entryDx=0;entryDy=0;entryPerimeter=0;strokeColor=#000000;endArrow=none;endFill=0;" edge="1" parent="1" source="125" target="197">
                    <mxGeometry relative="1" as="geometry">
                        <Array as="points">
                            <mxPoint x="658" y="398"/>
                        </Array>
                    </mxGeometry>
                </mxCell>
                <mxCell id="205" style="edgeStyle=none;html=1;exitX=1;exitY=0.25;exitDx=0;exitDy=0;entryX=1;entryY=0.5;entryDx=0;entryDy=0;entryPerimeter=0;strokeColor=#000000;endArrow=none;endFill=0;" edge="1" parent="1" source="125" target="203">
                    <mxGeometry relative="1" as="geometry">
                        <Array as="points">
                            <mxPoint x="1044" y="383"/>
                        </Array>
                    </mxGeometry>
                </mxCell>
                <mxCell id="125" value="Mapper" style="html=1;dropTarget=0;fillColor=#f2dbc0;strokeColor=#000000;fontColor=#000000;" vertex="1" parent="1">
                    <mxGeometry x="822" y="373" width="120" height="50" as="geometry"/>
                </mxCell>
                <mxCell id="126" value="" style="shape=module;jettyWidth=8;jettyHeight=4;fillColor=#f2dbc0;strokeColor=#000000;" vertex="1" parent="125">
                    <mxGeometry x="1" width="20" height="20" relative="1" as="geometry">
                        <mxPoint x="-27" y="7" as="offset"/>
                    </mxGeometry>
                </mxCell>
                <mxCell id="181" style="edgeStyle=none;html=1;exitX=1;exitY=0.5;exitDx=0;exitDy=0;entryX=0;entryY=0.5;entryDx=0;entryDy=0;entryPerimeter=0;strokeColor=#000000;endArrow=none;endFill=0;" edge="1" parent="1" source="131" target="180">
                    <mxGeometry relative="1" as="geometry"/>
                </mxCell>
                <mxCell id="185" style="edgeStyle=none;html=1;exitX=0.75;exitY=1;exitDx=0;exitDy=0;entryX=0;entryY=0.5;entryDx=0;entryDy=0;entryPerimeter=0;strokeColor=#000000;endArrow=none;endFill=0;" edge="1" parent="1" source="131" target="183">
                    <mxGeometry relative="1" as="geometry"/>
                </mxCell>
                <mxCell id="188" style="edgeStyle=none;html=1;exitX=0.5;exitY=1;exitDx=0;exitDy=0;entryX=0;entryY=0.5;entryDx=0;entryDy=0;entryPerimeter=0;strokeColor=#000000;endArrow=none;endFill=0;" edge="1" parent="1" source="131" target="195">
                    <mxGeometry relative="1" as="geometry">
                        <mxPoint x="689" y="178.9999999999999" as="targetPoint"/>
                        <Array as="points">
                            <mxPoint x="689" y="217"/>
                        </Array>
                    </mxGeometry>
                </mxCell>
                <mxCell id="131" value="DTO" style="html=1;dropTarget=0;fillColor=#f2dbc0;strokeColor=#000000;fontColor=#000000;" vertex="1" parent="1">
                    <mxGeometry x="629" y="82" width="120" height="50" as="geometry"/>
                </mxCell>
                <mxCell id="132" value="" style="shape=module;jettyWidth=8;jettyHeight=4;fillColor=#f2dbc0;strokeColor=#000000;" vertex="1" parent="131">
                    <mxGeometry x="1" width="20" height="20" relative="1" as="geometry">
                        <mxPoint x="-27" y="7" as="offset"/>
                    </mxGeometry>
                </mxCell>
                <mxCell id="222" style="edgeStyle=none;html=1;exitX=1;exitY=0.5;exitDx=0;exitDy=0;exitPerimeter=0;entryX=0.5;entryY=0;entryDx=0;entryDy=0;strokeColor=#000000;endArrow=none;endFill=0;" edge="1" parent="1" source="134" target="219">
                    <mxGeometry relative="1" as="geometry"/>
                </mxCell>
                <mxCell id="134" value="" style="shape=providedRequiredInterface;html=1;verticalLabelPosition=bottom;sketch=0;fontColor=#000000;fillColor=none;direction=south;strokeColor=#000000;" vertex="1" parent="1">
                    <mxGeometry x="520" y="532" width="18" height="18" as="geometry"/>
                </mxCell>
                <mxCell id="221" style="edgeStyle=none;html=1;exitX=0.5;exitY=1;exitDx=0;exitDy=0;entryX=0;entryY=0.5;entryDx=0;entryDy=0;entryPerimeter=0;strokeColor=#000000;endArrow=none;endFill=0;" edge="1" parent="1" source="137" target="134">
                    <mxGeometry relative="1" as="geometry"/>
                </mxCell>
                <mxCell id="137" value="DataSchema" style="html=1;dropTarget=0;fillColor=#f2dbc0;strokeColor=#000000;fontColor=#000000;" vertex="1" parent="1">
                    <mxGeometry x="459" y="468" width="140" height="50" as="geometry"/>
                </mxCell>
                <mxCell id="138" value="" style="shape=module;jettyWidth=8;jettyHeight=4;fillColor=#f2dbc0;strokeColor=#000000;" vertex="1" parent="137">
                    <mxGeometry x="1" width="20" height="20" relative="1" as="geometry">
                        <mxPoint x="-27" y="7" as="offset"/>
                    </mxGeometry>
                </mxCell>
                <mxCell id="204" style="edgeStyle=none;html=1;exitX=0.25;exitY=1;exitDx=0;exitDy=0;entryX=0;entryY=0.5;entryDx=0;entryDy=0;entryPerimeter=0;strokeColor=#000000;endArrow=none;endFill=0;" edge="1" parent="1" source="139" target="203">
                    <mxGeometry relative="1" as="geometry"/>
                </mxCell>
                <mxCell id="211" style="edgeStyle=none;html=1;exitX=0.5;exitY=1;exitDx=0;exitDy=0;entryX=0;entryY=0.5;entryDx=0;entryDy=0;entryPerimeter=0;strokeColor=#000000;endArrow=none;endFill=0;" edge="1" parent="1" source="139" target="206">
                    <mxGeometry relative="1" as="geometry"/>
                </mxCell>
                <mxCell id="212" style="edgeStyle=none;html=1;exitX=0.75;exitY=1;exitDx=0;exitDy=0;entryX=0;entryY=0.5;entryDx=0;entryDy=0;entryPerimeter=0;strokeColor=#000000;endArrow=none;endFill=0;" edge="1" parent="1" source="139" target="208">
                    <mxGeometry relative="1" as="geometry"/>
                </mxCell>
                <mxCell id="139" value="DomainModel" style="html=1;dropTarget=0;fillColor=#f2dbc0;strokeColor=#000000;fontColor=#000000;" vertex="1" parent="1">
                    <mxGeometry x="1009" y="272" width="140" height="50" as="geometry"/>
                </mxCell>
                <mxCell id="140" value="" style="shape=module;jettyWidth=8;jettyHeight=4;fillColor=#f2dbc0;strokeColor=#000000;" vertex="1" parent="139">
                    <mxGeometry x="1" width="20" height="20" relative="1" as="geometry">
                        <mxPoint x="-27" y="7" as="offset"/>
                    </mxGeometry>
                </mxCell>
                <mxCell id="218" style="edgeStyle=none;html=1;exitX=0;exitY=0.5;exitDx=0;exitDy=0;exitPerimeter=0;entryX=1;entryY=0.5;entryDx=0;entryDy=0;strokeColor=#000000;endArrow=none;endFill=0;" edge="1" parent="1" source="142" target="137">
                    <mxGeometry relative="1" as="geometry"/>
                </mxCell>
                <mxCell id="142" value="" style="shape=providedRequiredInterface;html=1;verticalLabelPosition=bottom;sketch=0;fontColor=#000000;fillColor=none;direction=west;strokeColor=#000000;rotation=-180;" vertex="1" parent="1">
                    <mxGeometry x="667" y="484" width="18" height="18" as="geometry"/>
                </mxCell>
                <mxCell id="192" style="edgeStyle=none;html=1;exitX=0.5;exitY=1;exitDx=0;exitDy=0;entryX=0;entryY=0.5;entryDx=0;entryDy=0;entryPerimeter=0;strokeColor=#000000;endArrow=none;endFill=0;" edge="1" parent="1" source="144">
                    <mxGeometry relative="1" as="geometry">
                        <mxPoint x="882" y="338" as="targetPoint"/>
                    </mxGeometry>
                </mxCell>
                <mxCell id="202" style="edgeStyle=none;html=1;exitX=1;exitY=0.5;exitDx=0;exitDy=0;entryX=1;entryY=0.5;entryDx=0;entryDy=0;entryPerimeter=0;strokeColor=#000000;endArrow=none;endFill=0;" edge="1" parent="1" source="144" target="200">
                    <mxGeometry relative="1" as="geometry"/>
                </mxCell>
                <mxCell id="144" value="Service" style="html=1;dropTarget=0;fillColor=#f2dbc0;strokeColor=#000000;fontColor=#000000;" vertex="1" parent="1">
                    <mxGeometry x="822" y="272" width="120" height="50" as="geometry"/>
                </mxCell>
                <mxCell id="145" value="" style="shape=module;jettyWidth=8;jettyHeight=4;fillColor=#f2dbc0;strokeColor=#000000;" vertex="1" parent="144">
                    <mxGeometry x="1" width="20" height="20" relative="1" as="geometry">
                        <mxPoint x="-27" y="7" as="offset"/>
                    </mxGeometry>
                </mxCell>
                <mxCell id="168" style="edgeStyle=none;html=1;exitX=1;exitY=0.5;exitDx=0;exitDy=0;entryX=1;entryY=0.5;entryDx=0;entryDy=0;entryPerimeter=0;strokeColor=#000000;endArrow=none;endFill=0;" edge="1" parent="1" source="147" target="166">
                    <mxGeometry relative="1" as="geometry"/>
                </mxCell>
                <mxCell id="175" style="edgeStyle=none;html=1;exitX=0.5;exitY=1;exitDx=0;exitDy=0;entryX=1;entryY=0.5;entryDx=0;entryDy=0;entryPerimeter=0;strokeColor=#000000;endArrow=none;endFill=0;" edge="1" parent="1" source="147" target="174">
                    <mxGeometry relative="1" as="geometry"/>
                </mxCell>
                <mxCell id="147" value="Controller" style="html=1;dropTarget=0;fillColor=#f2dbc0;strokeColor=#000000;fontColor=#000000;" vertex="1" parent="1">
                    <mxGeometry x="822" y="82" width="120" height="50" as="geometry"/>
                </mxCell>
                <mxCell id="148" value="" style="shape=module;jettyWidth=8;jettyHeight=4;fillColor=#f2dbc0;strokeColor=#000000;" vertex="1" parent="147">
                    <mxGeometry x="1" width="20" height="20" relative="1" as="geometry">
                        <mxPoint x="-27" y="7" as="offset"/>
                    </mxGeometry>
                </mxCell>
                <mxCell id="162" value="IController" style="html=1;dropTarget=0;fillColor=#f2dbc0;strokeColor=#000000;fontColor=#000000;" vertex="1" parent="1">
                    <mxGeometry x="1009" y="82" width="120" height="50" as="geometry"/>
                </mxCell>
                <mxCell id="163" value="" style="shape=module;jettyWidth=8;jettyHeight=4;fillColor=#f2dbc0;strokeColor=#000000;" vertex="1" parent="162">
                    <mxGeometry x="1" width="20" height="20" relative="1" as="geometry">
                        <mxPoint x="-27" y="7" as="offset"/>
                    </mxGeometry>
                </mxCell>
                <mxCell id="164" value="Route" style="html=1;dropTarget=0;fillColor=#f2dbc0;strokeColor=#000000;fontColor=#000000;" vertex="1" parent="1">
                    <mxGeometry x="1009" y="179" width="120" height="50" as="geometry"/>
                </mxCell>
                <mxCell id="165" value="" style="shape=module;jettyWidth=8;jettyHeight=4;fillColor=#f2dbc0;strokeColor=#000000;" vertex="1" parent="164">
                    <mxGeometry x="1" width="20" height="20" relative="1" as="geometry">
                        <mxPoint x="-27" y="7" as="offset"/>
                    </mxGeometry>
                </mxCell>
                <mxCell id="167" style="edgeStyle=none;html=1;exitX=0;exitY=0.5;exitDx=0;exitDy=0;exitPerimeter=0;entryX=0;entryY=0.5;entryDx=0;entryDy=0;endArrow=none;endFill=0;strokeColor=#000000;" edge="1" parent="1" source="166" target="162">
                    <mxGeometry relative="1" as="geometry"/>
                </mxCell>
                <mxCell id="166" value="" style="shape=providedRequiredInterface;html=1;verticalLabelPosition=bottom;sketch=0;fontColor=#000000;fillColor=none;direction=west;strokeColor=#000000;" vertex="1" parent="1">
                    <mxGeometry x="966" y="98" width="18" height="18" as="geometry"/>
                </mxCell>
                <mxCell id="170" style="edgeStyle=none;html=1;exitX=0;exitY=0.5;exitDx=0;exitDy=0;exitPerimeter=0;strokeColor=#000000;endArrow=none;endFill=0;" edge="1" parent="1" source="169" target="162">
                    <mxGeometry relative="1" as="geometry"/>
                </mxCell>
                <mxCell id="171" style="edgeStyle=none;html=1;exitX=1;exitY=0.5;exitDx=0;exitDy=0;exitPerimeter=0;entryX=0.5;entryY=0;entryDx=0;entryDy=0;strokeColor=#000000;endArrow=none;endFill=0;" edge="1" parent="1" source="169" target="164">
                    <mxGeometry relative="1" as="geometry"/>
                </mxCell>
                <mxCell id="169" value="" style="shape=providedRequiredInterface;html=1;verticalLabelPosition=bottom;sketch=0;fontColor=#000000;fillColor=none;direction=south;strokeColor=#000000;" vertex="1" parent="1">
                    <mxGeometry x="1060" y="147" width="18" height="18" as="geometry"/>
                </mxCell>
                <mxCell id="178" style="edgeStyle=none;html=1;exitX=0.5;exitY=1;exitDx=0;exitDy=0;entryX=0;entryY=0.5;entryDx=0;entryDy=0;entryPerimeter=0;strokeColor=#000000;endArrow=none;endFill=0;" edge="1" parent="1" source="172" target="177">
                    <mxGeometry relative="1" as="geometry"/>
                </mxCell>
                <mxCell id="196" style="edgeStyle=none;html=1;exitX=0;exitY=0.75;exitDx=0;exitDy=0;strokeColor=#000000;endArrow=none;endFill=0;" edge="1" parent="1" source="172" target="195">
                    <mxGeometry relative="1" as="geometry"/>
                </mxCell>
                <mxCell id="172" value="IService" style="html=1;dropTarget=0;fillColor=#f2dbc0;strokeColor=#000000;fontColor=#000000;" vertex="1" parent="1">
                    <mxGeometry x="822" y="179" width="120" height="50" as="geometry"/>
                </mxCell>
                <mxCell id="173" value="" style="shape=module;jettyWidth=8;jettyHeight=4;fillColor=#f2dbc0;strokeColor=#000000;" vertex="1" parent="172">
                    <mxGeometry x="1" width="20" height="20" relative="1" as="geometry">
                        <mxPoint x="-27" y="7" as="offset"/>
                    </mxGeometry>
                </mxCell>
                <mxCell id="176" style="edgeStyle=none;html=1;exitX=0;exitY=0.5;exitDx=0;exitDy=0;exitPerimeter=0;entryX=0.5;entryY=0;entryDx=0;entryDy=0;strokeColor=#000000;endArrow=none;endFill=0;" edge="1" parent="1" source="174" target="172">
                    <mxGeometry relative="1" as="geometry"/>
                </mxCell>
                <mxCell id="174" value="" style="shape=providedRequiredInterface;html=1;verticalLabelPosition=bottom;sketch=0;fontColor=#000000;fillColor=none;direction=north;strokeColor=#000000;" vertex="1" parent="1">
                    <mxGeometry x="873" y="147" width="18" height="18" as="geometry"/>
                </mxCell>
                <mxCell id="179" style="edgeStyle=none;html=1;exitX=1;exitY=0.5;exitDx=0;exitDy=0;exitPerimeter=0;entryX=0.5;entryY=0;entryDx=0;entryDy=0;strokeColor=#000000;endArrow=none;endFill=0;" edge="1" parent="1" source="177" target="144">
                    <mxGeometry relative="1" as="geometry"/>
                </mxCell>
                <mxCell id="177" value="" style="shape=providedRequiredInterface;html=1;verticalLabelPosition=bottom;sketch=0;fontColor=#000000;fillColor=none;direction=south;strokeColor=#000000;" vertex="1" parent="1">
                    <mxGeometry x="873" y="240" width="18" height="18" as="geometry"/>
                </mxCell>
                <mxCell id="182" style="edgeStyle=none;html=1;exitX=1;exitY=0.5;exitDx=0;exitDy=0;exitPerimeter=0;entryX=0;entryY=0.5;entryDx=0;entryDy=0;strokeColor=#000000;endArrow=none;endFill=0;" edge="1" parent="1" source="180" target="147">
                    <mxGeometry relative="1" as="geometry"/>
                </mxCell>
                <mxCell id="180" value="" style="shape=providedRequiredInterface;html=1;verticalLabelPosition=bottom;sketch=0;fontColor=#000000;fillColor=none;direction=west;strokeColor=#000000;rotation=-180;" vertex="1" parent="1">
                    <mxGeometry x="777" y="98" width="18" height="18" as="geometry"/>
                </mxCell>
                <mxCell id="186" style="edgeStyle=none;html=1;exitX=1;exitY=0.5;exitDx=0;exitDy=0;exitPerimeter=0;entryX=0;entryY=0.25;entryDx=0;entryDy=0;strokeColor=#000000;endArrow=none;endFill=0;" edge="1" parent="1" source="183" target="172">
                    <mxGeometry relative="1" as="geometry">
                        <Array as="points">
                            <mxPoint x="719" y="192"/>
                        </Array>
                    </mxGeometry>
                </mxCell>
                <mxCell id="183" value="" style="shape=providedRequiredInterface;html=1;verticalLabelPosition=bottom;sketch=0;fontColor=#000000;fillColor=none;direction=south;strokeColor=#000000;" vertex="1" parent="1">
                    <mxGeometry x="710" y="158" width="18" height="18" as="geometry"/>
                </mxCell>
                <mxCell id="193" style="edgeStyle=none;html=1;exitX=1;exitY=0.5;exitDx=0;exitDy=0;exitPerimeter=0;entryX=0.5;entryY=0;entryDx=0;entryDy=0;strokeColor=#000000;endArrow=none;endFill=0;" edge="1" parent="1" target="125">
                    <mxGeometry relative="1" as="geometry">
                        <mxPoint x="882" y="355.9999999999999" as="sourcePoint"/>
                    </mxGeometry>
                </mxCell>
                <mxCell id="194" value="" style="shape=providedRequiredInterface;html=1;verticalLabelPosition=bottom;sketch=0;fontColor=#000000;fillColor=none;direction=north;strokeColor=#000000;" vertex="1" parent="1">
                    <mxGeometry x="873" y="339" width="18" height="18" as="geometry"/>
                </mxCell>
                <mxCell id="195" value="" style="shape=providedRequiredInterface;html=1;verticalLabelPosition=bottom;sketch=0;fontColor=#000000;fillColor=none;direction=west;strokeColor=#000000;rotation=-180;" vertex="1" parent="1">
                    <mxGeometry x="731" y="208" width="18" height="18" as="geometry"/>
                </mxCell>
                <mxCell id="199" style="edgeStyle=none;html=1;exitX=0;exitY=0.5;exitDx=0;exitDy=0;exitPerimeter=0;entryX=0.25;entryY=1;entryDx=0;entryDy=0;strokeColor=#000000;endArrow=none;endFill=0;" edge="1" parent="1" source="197" target="131">
                    <mxGeometry relative="1" as="geometry"/>
                </mxCell>
                <mxCell id="197" value="" style="shape=providedRequiredInterface;html=1;verticalLabelPosition=bottom;sketch=0;fontColor=#000000;fillColor=none;direction=south;strokeColor=#000000;" vertex="1" parent="1">
                    <mxGeometry x="649" y="339" width="18" height="18" as="geometry"/>
                </mxCell>
                <mxCell id="201" style="edgeStyle=none;html=1;exitX=0;exitY=0.5;exitDx=0;exitDy=0;exitPerimeter=0;entryX=0;entryY=0.5;entryDx=0;entryDy=0;strokeColor=#000000;endArrow=none;endFill=0;" edge="1" parent="1" source="200" target="139">
                    <mxGeometry relative="1" as="geometry"/>
                </mxCell>
                <mxCell id="200" value="" style="shape=providedRequiredInterface;html=1;verticalLabelPosition=bottom;sketch=0;fontColor=#000000;fillColor=none;direction=west;strokeColor=#000000;" vertex="1" parent="1">
                    <mxGeometry x="966" y="288" width="18" height="18" as="geometry"/>
                </mxCell>
                <mxCell id="203" value="" style="shape=providedRequiredInterface;html=1;verticalLabelPosition=bottom;sketch=0;fontColor=#000000;fillColor=none;direction=south;strokeColor=#000000;" vertex="1" parent="1">
                    <mxGeometry x="1035" y="347" width="18" height="18" as="geometry"/>
                </mxCell>
                <mxCell id="206" value="" style="shape=providedRequiredInterface;html=1;verticalLabelPosition=bottom;sketch=0;fontColor=#000000;fillColor=none;direction=south;strokeColor=#000000;" vertex="1" parent="1">
                    <mxGeometry x="1070" y="412" width="18" height="18" as="geometry"/>
                </mxCell>
                <mxCell id="208" value="" style="shape=providedRequiredInterface;html=1;verticalLabelPosition=bottom;sketch=0;fontColor=#000000;fillColor=none;direction=south;strokeColor=#000000;" vertex="1" parent="1">
                    <mxGeometry x="1104" y="518" width="18" height="18" as="geometry"/>
                </mxCell>
                <mxCell id="216" style="edgeStyle=none;html=1;exitX=1;exitY=0.5;exitDx=0;exitDy=0;exitPerimeter=0;entryX=0;entryY=0.5;entryDx=0;entryDy=0;strokeColor=#000000;endArrow=none;endFill=0;" edge="1" parent="1" source="214" target="144">
                    <mxGeometry relative="1" as="geometry">
                        <Array as="points">
                            <mxPoint x="719" y="297"/>
                        </Array>
                    </mxGeometry>
                </mxCell>
                <mxCell id="214" value="" style="shape=providedRequiredInterface;html=1;verticalLabelPosition=bottom;sketch=0;fontColor=#000000;fillColor=none;direction=north;strokeColor=#000000;" vertex="1" parent="1">
                    <mxGeometry x="710" y="534" width="18" height="18" as="geometry"/>
                </mxCell>
                <mxCell id="219" value="Persistence / &lt;br&gt;Schema" style="html=1;dropTarget=0;fillColor=#f2dbc0;strokeColor=#000000;fontColor=#000000;" vertex="1" parent="1">
                    <mxGeometry x="459" y="563" width="140" height="50" as="geometry"/>
                </mxCell>
                <mxCell id="220" value="" style="shape=module;jettyWidth=8;jettyHeight=4;fillColor=#f2dbc0;strokeColor=#000000;" vertex="1" parent="219">
                    <mxGeometry x="1" width="20" height="20" relative="1" as="geometry">
                        <mxPoint x="-27" y="7" as="offset"/>
                    </mxGeometry>
                </mxCell>
                <mxCell id="224" style="edgeStyle=none;html=1;strokeColor=#000000;fontColor=#000000;endArrow=circle;endFill=0;" edge="1" parent="1">
                    <mxGeometry relative="1" as="geometry">
                        <mxPoint x="912" y="-19" as="targetPoint"/>
                        <mxPoint x="912" y="14" as="sourcePoint"/>
                    </mxGeometry>
                </mxCell>
                <mxCell id="225" value="Management Core" style="edgeLabel;html=1;align=center;verticalAlign=middle;resizable=0;points=[];fontColor=#000000;labelBackgroundColor=none;" vertex="1" connectable="0" parent="224">
                    <mxGeometry x="0.4139" y="-5" relative="1" as="geometry">
                        <mxPoint x="-5" y="-15" as="offset"/>
                    </mxGeometry>
                </mxCell>
                <mxCell id="226" style="edgeStyle=none;html=1;exitX=0.75;exitY=0;exitDx=0;exitDy=0;strokeColor=#000000;endArrow=box;endFill=0;entryX=0.626;entryY=0;entryDx=0;entryDy=0;entryPerimeter=0;" edge="1" parent="1" source="147" target="113">
                    <mxGeometry relative="1" as="geometry">
                        <mxPoint x="953.4139999999998" y="57" as="targetPoint"/>
                        <mxPoint x="859.9999999999998" y="57.80000000000001" as="sourcePoint"/>
                    </mxGeometry>
                </mxCell>
            </root>
        </mxGraphModel>
    </diagram>
</mxfile>